<svg xmlns="http://www.w3.org/2000/svg" viewBox="60 380 400 270" width="100%" height="100%">
  <style>
    path {
      fill: #09090b;
    }
    @media (prefers-color-scheme: dark) {
      path {
        fill: #ffffff;
      }
    }
  </style>
  <path opacity="1.000000" stroke="none" d="M163.628036,415.718262 C166.005829,410.347168 168.293869,405.350372 170.474213,400.307037 C171.398285,398.169556 172.494141,396.656647 175.179504,396.669281 C193.006470,396.753143 210.833893,396.738495 228.661102,396.781097 C229.125488,396.782227 229.589203,397.070679 230.960266,397.526978 C214.584457,434.862396 198.268021,472.062408 181.985825,509.184387 C184.657333,511.414276 187.262177,510.663300 189.649429,510.666351 C231.637253,510.719818 273.625580,510.792328 315.612488,510.590668 C320.459259,510.567383 322.604828,512.232117 324.306793,516.604187 C329.922882,531.031189 335.996399,545.279968 341.872162,559.606201 C342.555023,561.271179 343.644745,562.842590 343.318115,564.899048 C341.818024,566.713379 339.669128,566.054077 337.785217,566.055176 C279.802032,566.089661 221.818573,566.152588 163.836060,565.947327 C158.500305,565.928467 155.969955,567.570312 153.913177,572.505371 C146.162964,591.101074 137.852280,609.462708 129.851456,627.955200 C128.681808,630.658691 127.346451,632.331970 124.049484,632.310486 C107.055176,632.199707 90.059692,632.273193 73.064651,632.255371 C71.771690,632.254028 70.381218,632.449524 68.582458,630.659607 C100.123672,559.348511 131.809204,487.711121 163.628036,415.718262 Z" />
  <path opacity="1.000000" stroke="none" d="M409.011780,543.083801 C421.179993,572.476990 433.198273,601.516785 445.080597,630.228027 C443.440643,632.727966 441.440216,632.167725 439.708038,632.173218 C422.714752,632.226990 405.720795,632.157166 388.728149,632.278503 C385.301239,632.302979 383.269531,631.310303 381.913971,627.910950 C363.229950,581.057373 344.666016,534.152527 325.433838,487.523743 C321.633148,478.308868 321.272919,470.916870 326.124817,461.923859 C334.494324,446.410980 341.380005,430.098999 348.953339,414.153229 C349.843964,412.278015 350.208496,409.948364 353.196014,408.601715 C371.773651,453.365082 390.317749,498.047760 409.011780,543.083801 Z" />
  <path opacity="1.000000" stroke="none" d="M251.909317,462.981506 C261.412781,442.204834 270.827240,421.801971 280.030273,401.304169 C281.533630,397.955750 283.360718,396.548981 287.127441,396.592712 C303.280243,396.780304 319.436432,396.665100 335.591370,396.688477 C337.227417,396.690857 338.933228,396.390778 341.107788,397.768280 C338.689514,403.374420 336.271210,409.122986 333.740967,414.821869 C322.258789,440.682953 310.634949,466.482117 299.341797,492.425323 C297.252075,497.226013 294.667480,499.174774 289.288422,499.058990 C273.640961,498.722137 257.980652,498.984894 242.325394,499.001617 C240.525955,499.003540 238.659195,499.280487 236.391586,497.569366 C241.483551,486.215363 246.616714,474.769501 251.909317,462.981506 Z" />
  <path opacity="1.000000" stroke="none" d="M198.955750,585.019836 C200.670898,579.324585 203.831161,577.348145 209.738297,577.548889 C224.708603,578.057556 239.708023,577.699829 254.695755,577.716309 C256.659027,577.718506 258.686432,577.416260 260.478119,578.380859 C261.347748,580.306641 260.181641,581.718628 259.544250,583.187378 C253.051575,598.149170 246.497803,613.084473 240.030853,628.057312 C238.977631,630.495850 237.913055,632.353638 234.731064,632.335876 C216.912964,632.236511 199.093994,632.294983 181.275406,632.264221 C180.506638,632.262878 179.738480,631.913635 178.136765,631.523376 C185.125687,615.897888 191.954987,600.629272 198.955750,585.019836 Z" />
</svg>